<svg width="2500" height="640" viewBox="0 0 2500 640" fill="none" xmlns="http://www.w3.org/2000/svg">
<path d="M210.141 69.8575C209.402 60.0729 206.273 12.7428 155.814 12.7428C85.2171 12.7428 49.2075 98.1304 49.2075 149.955C49.2075 196.147 68.6061 225.501 110.589 225.501C150.467 225.501 175.213 200.471 192.165 183.86L198.138 188.866C185.111 204.339 153.709 241.429 102.17 241.429C61.2107 241.429 9.6709 216.683 9.6709 146.086C9.6709 77.9924 72.19 0 153.027 0C178.398 0 199.959 8.47621 208.094 8.47621C218.276 8.47621 220.438 4.20966 222.202 0.682651H229.597L216.57 70.9383L210.141 69.8575ZM376.366 131.694C376.366 175.099 328.012 238.983 274.026 238.983C236.594 238.983 220.722 217.366 220.722 188.069C220.722 136.188 272.945 79.4146 324.485 79.4146C365.444 79.4146 376.366 108.37 376.366 131.694ZM250.361 198.764C250.361 218.788 260.942 231.417 278.577 231.417C318.796 231.417 346.728 158.431 346.728 120.601C346.728 102.283 338.934 86.753 321.982 86.753C282.502 86.8099 250.361 157.066 250.361 198.764ZM625.532 198.024L623.768 200.471C611.083 218.39 593.448 238.244 573.651 238.244C558.803 238.244 558.803 225.899 558.803 220.95C558.803 211.393 586.28 112.921 586.28 105.867C586.28 100.577 583.151 97.7323 578.884 97.7323C564.435 97.7323 539.006 128.793 528.084 146.086C511.189 172.937 505.215 195.18 494.919 235.058H468.466C477.625 200.755 501.973 113.945 501.973 107.232C501.973 97.7323 497.308 97.7323 494.236 97.7323C478.365 97.7323 451.514 133.344 442.014 147.452C427.849 168.728 420.795 191.937 407.711 235.058H381.315C387.004 211.734 415.846 112.239 415.846 104.445C415.846 96.6514 410.555 95.9688 393.318 95.9688V90.28C412.376 86.753 431.035 83.2829 449.75 79.4146L450.831 80.211L431.035 150.751L431.831 151.434C442.412 134.14 478.706 79.4146 508.401 79.4146C521.827 79.4146 529.222 87.6063 529.222 102.283C529.222 107.232 521.03 136.586 516.138 150.751L516.877 151.434C541.566 110.475 570.181 79.4146 593.448 79.4146C606.133 79.4146 614.268 88.9717 614.268 103.023C614.268 115.083 585.711 209.629 585.711 214.579C585.711 220.552 586.735 221.633 590.944 221.633C597.657 221.633 606.873 210.369 620.298 193.758L625.532 198.024Z" fill="white"/>
<path d="M647.377 87.0942L701.988 79.3575C703.069 79.3575 704.548 80.154 703.069 83.9085L693.569 116.732L694.252 117.472C702.671 105.127 722.866 79.3575 751.765 79.3575C783.223 79.3575 793.804 100.235 793.804 125.55C793.804 180.332 737.258 238.869 688.62 238.869C680.248 238.974 671.994 236.896 664.67 232.839C661.485 244.842 651.643 283.753 651.643 290.75C651.643 302.014 665.012 302.014 674.17 302.014V307.305H601.924V301.73C620.583 301.73 622.687 292.173 625.475 280.852C635.032 241.372 670.985 110.077 670.985 102.624C670.985 96.31 664.386 92.0434 656.251 92.3279L648.116 92.7261L647.377 87.0942ZM738.794 94.5464C722.183 94.5464 701.704 110.759 692.545 134.766C683.727 157.35 669.563 205.363 669.563 219.129C669.563 228.288 678.437 232.157 687.254 232.157C730.375 232.157 762.175 166.509 762.175 124.469C762.118 115.083 761.72 94.5464 738.794 94.5464ZM969.244 199.731C948.025 225.899 936.022 238.585 920.833 238.585C906.043 238.585 906.043 229.426 906.043 223.339C906.043 215.318 907.749 207.524 913.438 186.021L912.755 185.225C883.402 228.345 864.799 238.926 843.637 238.926C808.254 238.926 807.23 207.468 807.23 197.228C807.23 145.404 861.216 79.4144 908.147 79.4144C923.336 79.4144 934.885 88.5733 936.022 98.4717H936.762L940.289 82.9414L941.313 81.9175L962.93 79.4144L965.376 80.4384C964.295 84.7049 931.812 205.078 931.812 216.057C931.812 218.447 933.917 220.609 936.762 220.609C942.052 220.609 949.163 211.791 964.978 196.204L969.244 199.731ZM858.03 221.632C895.519 221.632 930.049 145.404 930.049 110.816C930.049 93.9207 920.208 87.1511 909.911 87.1511C868.611 87.1511 836.868 164.859 836.868 196.602C836.868 215.318 848.473 221.632 858.03 221.632ZM1141.44 198.309C1123.75 221.917 1111.41 238.187 1092.35 238.187C1076.19 238.187 1075.4 227.549 1075.4 217.309C1075.4 208.89 1101.56 122.763 1101.56 108.598C1101.56 102.283 1099.4 97.4476 1092.75 97.4476C1075.85 97.4476 1053.55 127.712 1040.81 147.452C1024.6 171.913 1019.99 187.045 1005.54 235.058H979.029C989.951 195.18 1013.62 112.58 1013.62 105.184C1013.62 99.8939 1010.09 95.9686 991.032 95.9686V90.2798C1010.15 86.7528 1029.2 83.2828 1048.2 79.4144L1049.23 80.2108L1026.7 153.88L1027.38 154.619C1043.94 128.565 1076.42 79.4713 1105.72 79.4713C1121.99 79.4713 1130.06 87.8906 1130.06 102.738C1130.06 117.927 1101.85 205.135 1101.85 215.659C1101.85 221.007 1106.8 221.632 1107.54 221.632C1114.65 221.632 1123.41 210.369 1136.49 193.758L1141.44 198.309ZM1230.07 198.764C1216.25 219.471 1200.72 238.926 1181.09 238.926C1164.42 238.926 1164.42 223.339 1164.42 217.025C1164.42 200.414 1192.24 112.864 1192.24 102.966C1192.24 95.5704 1189.45 93.8638 1170 93.8638V88.232C1183.37 87.4925 1212.66 81.8606 1226.55 79.3575L1227.51 80.154L1196.51 193.701C1195.09 198.764 1190.82 212.758 1190.82 217.025C1190.82 219.471 1193.32 222.315 1196.51 222.315C1200.72 222.315 1210.96 215.318 1225.46 194.839L1230.07 198.764ZM1223.02 41.6982C1214.14 41.6982 1206.07 35.6681 1206.07 23.3236C1206.07 10.9222 1214.2 4.20947 1222.68 4.20947C1234.28 4.20947 1240.31 15.8714 1240.31 23.665C1240.26 30.6621 1234.68 41.6982 1223.02 41.6982ZM1372.23 200.755C1368.37 206.387 1336.22 238.926 1301.01 238.926C1263.92 238.926 1252.49 211.393 1252.49 189.093C1252.49 138.634 1308.35 79.3575 1358.07 79.3575C1376.04 79.3575 1387.02 87.7768 1387.02 103.364C1387.02 131.182 1353.8 159.796 1296.69 167.988L1286.73 169.41C1285.03 176.748 1283.26 183.803 1283.26 190.913C1283.26 214.863 1301.58 222.941 1316.43 222.941C1335.48 222.941 1350.33 210.995 1367.91 196.488L1372.23 200.755ZM1289.35 161.616C1361.99 146.769 1363.76 104.445 1363.76 101.6C1363.76 94.2051 1360.29 87.5493 1351.41 87.5493C1332.36 87.5493 1308.41 114.684 1295.32 146.029L1289.35 161.616ZM1413.19 183.518C1415.7 198.991 1421.38 231.474 1449.94 231.474C1469.74 231.474 1475.37 214.578 1475.37 202.917C1475.37 179.65 1433.39 145.688 1433.39 118.61C1433.39 107.631 1438.28 79.4713 1475.71 79.4713C1491.58 79.4713 1498.64 85.4445 1509.22 85.4445C1515.19 85.4445 1517.41 81.9175 1519.12 79.13H1524.01L1517.01 128.167H1511.38C1509.62 108.029 1501.08 87.6062 1478.1 87.6062C1470.42 87.6062 1459.16 90.6781 1459.16 107.972C1459.16 130.215 1502.22 161.616 1502.22 191.653C1502.22 230.165 1469.34 238.983 1449.6 238.983C1439.02 238.983 1424.85 232.27 1414.67 232.27C1409.67 232.27 1408.36 235.797 1406.25 239.609H1400.56L1407.62 183.575L1413.19 183.518ZM1883.99 10.2396C1866.64 13.4252 1861.07 14.1079 1855.04 36.3508L1808.44 206.045C1803.15 226.525 1815.84 227.606 1834.95 229.369V235.058H1738.64V229.369C1754.86 227.321 1767.88 225.842 1774.2 203.258L1797.12 119.918H1696.55L1673.28 206.045C1668.67 225.899 1679.03 226.866 1697.29 229.369V235.058H1610.48V229.369C1627.77 226.183 1633.06 225.16 1639.15 203.258L1682.55 47.2731C1684.66 40.1622 1686.42 31.7998 1686.42 25.3146C1686.42 13.3683 1676.81 11.6049 1659.17 10.1827V4.55078H1755.54V10.1827C1743.19 11.2067 1726.24 12.9702 1719.98 36.2939L1700.87 105.127H1801.5L1817.66 47.2162C1819.96 40.1083 1821.28 32.7213 1821.59 25.2578C1821.59 12.9133 1812.09 11.8892 1796.84 10.1257V4.4939H1883.99V10.2396ZM2029.79 131.694C2029.79 175.099 1981.38 238.983 1927.45 238.983C1890.02 238.983 1874.09 217.366 1874.09 188.069C1874.09 136.188 1926.26 79.4144 1977.85 79.4144C2018.76 79.4144 2029.79 108.37 2029.79 131.694ZM1903.79 198.764C1903.79 218.788 1914.37 231.417 1932.06 231.417C1972.28 231.417 2000.1 158.431 2000.1 120.601C2000.1 102.283 1992.3 86.7529 1975.47 86.7529C1935.87 86.8098 1903.79 157.065 1903.79 198.764ZM2205.12 196.887C2182.93 229.028 2173.72 238.244 2156.08 238.244C2140.21 238.244 2139.53 225.216 2139.53 219.926C2139.53 213.554 2146.58 183.859 2154.72 154.904H2153.69C2129.63 194.839 2103.58 238.983 2071.78 238.983C2059.03 238.983 2052.38 233.636 2052.38 218.105C2052.38 202.689 2079.17 113.717 2079.17 104.16C2079.17 93.9206 2072.57 93.9207 2058.01 93.9207V88.9716C2075.7 86.8098 2093.34 83.6241 2111.08 79.4144L2112.05 80.2108L2079.91 208.207C2078.94 212.815 2079.91 220.21 2087.36 220.21C2102.67 220.21 2124.79 187.102 2136.8 168.784C2154.15 142.559 2161.83 120.373 2175.65 82.5432H2201.76L2173.89 188.069C2171.84 195.18 2167.18 210.653 2167.18 216.001C2167.18 217.707 2167.63 221.632 2171.44 221.632C2178.15 221.632 2188.05 209.288 2200.34 193.758L2205.12 196.887ZM2228.78 183.518C2231.34 198.991 2236.98 231.474 2265.53 231.474C2285.33 231.474 2290.96 214.578 2290.96 202.917C2290.96 179.65 2248.98 145.688 2248.98 118.61C2248.98 107.631 2253.87 79.4713 2291.3 79.4713C2307.17 79.4713 2314.23 85.4445 2324.81 85.4445C2330.78 85.4445 2333 81.9175 2334.77 79.13H2339.66L2332.6 128.167H2327.03C2325.15 108.029 2316.62 87.6062 2293.81 87.6062C2285.96 87.6062 2274.69 90.6781 2274.69 107.972C2274.69 130.215 2317.76 161.616 2317.76 191.653C2317.76 230.165 2284.99 238.983 2265.25 238.983C2254.55 238.983 2240.39 232.27 2230.32 232.27C2225.31 232.27 2223.89 235.797 2221.79 239.609H2216.16L2223.15 183.575L2228.78 183.518ZM2474.76 200.755C2470.9 206.387 2438.75 238.926 2403.48 238.926C2366.51 238.926 2355.13 211.393 2355.13 189.093C2355.13 138.634 2410.82 79.3575 2460.6 79.3575C2478.58 79.3575 2489.5 87.7768 2489.5 103.364C2489.5 131.182 2456.33 159.796 2399.22 167.988L2389.32 169.41C2387.56 176.748 2385.79 183.803 2385.79 190.913C2385.79 214.863 2404.11 222.941 2418.96 222.941C2438.02 222.941 2452.86 210.995 2470.55 196.488L2474.76 200.755ZM2391.88 161.616C2464.52 146.769 2466.35 104.445 2466.35 101.6C2466.35 94.2051 2462.82 87.5493 2454.06 87.5493C2434.89 87.5493 2410.88 114.684 2397.85 146.029L2391.88 161.616ZM631.448 486.215H653.748C660.062 465.622 672.009 425.744 702.614 425.744C720.021 425.744 723.89 436.609 723.89 441.502C723.89 446.394 719.566 451.172 713.878 451.172C706.198 451.172 704.776 444.63 704.776 441.957C704.776 436.609 707.222 436.609 707.222 433.992C707.222 432.058 704.776 430.977 701.59 430.977C681.736 430.977 674.455 473.927 672.293 486.215H698.461L697.039 494.008H670.643L653.293 571.432C646.523 600.9 632.927 639.924 604.597 639.924C597.145 639.924 587.19 636.739 585.768 625.589C585.768 624.849 585.768 615.69 594.471 615.178C597.885 614.951 604.142 618.136 604.142 624.11C604.142 628.205 601.98 628.205 601.98 630.936C601.98 632.813 603.63 634.804 606.588 634.804C622.062 634.804 628.376 605.223 630.31 595.609L651.643 493.952H629.741L631.448 486.215ZM794.544 518.925C794.544 548.677 761.378 592.48 724.345 592.48C698.689 592.48 687.766 577.69 687.766 557.608C687.766 522.054 723.662 483.086 758.932 483.086C787.035 483.086 794.544 502.94 794.544 518.925ZM708.132 564.89C708.132 578.657 715.357 587.417 727.474 587.417C755.007 587.417 774.178 537.3 774.178 511.416C774.178 498.787 768.774 488.149 757.226 488.149C730.147 488.149 708.132 536.333 708.132 564.89ZM805.864 589.75L825.49 519.153C827.341 512.811 828.635 506.32 829.359 499.754C829.359 496.341 828.164 492.529 820.598 492.529C818.038 492.529 815.364 493.212 812.691 493.724V489.628C824.978 487.978 839.371 484.793 850.123 483.143L850.919 483.655L839.029 531.839L839.598 532.294L841.419 527.458C849.44 511.53 867.814 483.2 883.06 483.2C888.635 483.2 894.665 486.784 894.665 495.089C894.665 507.605 885.961 507.604 883.288 507.604C872.934 507.604 876.575 498.958 870.659 498.958C863.15 498.958 848.643 525.808 846.709 529.392C837.494 546.857 834.137 557.722 824.239 589.863H805.864V589.75ZM1005.54 494.008H985.23L963.84 574.504C963.669 575.3 963.669 575.755 963.669 576.495C963.669 578.657 964.807 580.591 967.538 580.591C972.373 580.591 980.849 569.27 986.879 561.477L990.065 563.183C977.721 581.785 968.277 592.48 955.705 592.48C950.813 592.48 944.043 590.034 944.043 582.752C944.043 579.169 948.708 564.378 949.675 560.453L967.083 494.008H949.163C948.936 492.586 948.936 491.335 949.675 490.14C951.154 487.978 957.924 486.272 961.963 484.053C970.041 480.014 981.589 469.035 988.415 460.616C989.439 459.421 990.293 457.202 992.511 457.714C994.161 457.202 994.673 459.364 994.161 461.298L987.391 486.215H1006.79L1005.54 494.008ZM1110.78 564.378C1102.08 577.007 1091.67 591.968 1075.74 591.968C1068 591.968 1064.81 587.417 1064.81 580.875C1064.81 574.504 1084.78 505.215 1084.78 501.916C1084.78 497.763 1081.54 495.431 1077.67 495.431C1065.55 495.431 1045.25 522.737 1040.47 529.563C1029.6 546.003 1025.96 559.315 1017.94 589.807H999.793L1031.76 468.58C1034.49 458.454 1038.25 444.63 1038.25 440.99C1038.25 438.145 1036.37 435.016 1028.35 434.732L1022.15 435.016V431.091C1034.91 429.678 1047.58 427.512 1060.09 424.606L1061.29 425.801L1032.67 532.009L1033.19 532.464C1040.64 520.461 1065.33 483.2 1087.11 483.2C1092.41 483.2 1103.61 484.85 1103.61 500.664C1103.61 509.027 1084.04 571.091 1084.04 576.097C1084.04 579.055 1085.98 580.705 1087.85 580.705C1092.75 580.705 1098.55 573.252 1107.71 561.59L1110.78 564.378ZM1198.39 566.312C1195.66 570.18 1173.75 592.48 1149.58 592.48C1124.15 592.48 1116.35 573.594 1116.35 558.348C1116.35 523.76 1154.53 483.086 1188.72 483.086C1201.06 483.086 1208.57 488.889 1208.57 499.583C1208.57 518.641 1185.81 538.267 1146.56 543.842L1139.85 544.695C1138.65 549.872 1137.4 554.707 1137.4 559.543C1137.4 575.983 1150.03 581.615 1160.16 581.615C1173.24 581.615 1183.31 573.309 1195.48 563.525L1198.39 566.312ZM1141.5 539.575C1191.33 529.279 1192.53 500.323 1192.53 498.275C1192.53 493.212 1190.25 488.661 1184.11 488.661C1171.08 488.661 1154.47 507.32 1145.65 528.823L1141.5 539.575ZM1273.14 589.75L1292.82 519.153C1294.66 512.812 1295.94 506.32 1296.63 499.754C1296.63 496.341 1295.44 492.529 1288.04 492.529C1285.25 492.529 1282.58 493.212 1279.96 493.724V489.628C1292.31 487.978 1306.59 484.793 1317.45 483.143L1318.25 483.655L1306.36 531.839L1306.81 532.294L1308.75 527.458C1316.77 511.53 1335.14 483.2 1350.39 483.2C1355.91 483.2 1361.99 486.784 1361.99 495.089C1361.99 507.605 1353.29 507.604 1350.56 507.604C1340.15 507.604 1343.85 498.958 1337.99 498.958C1330.48 498.958 1315.97 525.808 1314.09 529.392C1304.82 546.857 1301.47 557.722 1291.57 589.863H1273.14V589.75ZM1429.75 566.312C1427.13 570.18 1405.17 592.48 1380.94 592.48C1355.57 592.48 1347.77 573.594 1347.77 558.348C1347.77 523.76 1386.06 483.086 1420.08 483.086C1432.48 483.086 1439.99 488.889 1439.99 499.583C1439.99 518.641 1417.29 538.267 1377.98 543.842L1371.21 544.695C1370.01 549.872 1368.88 554.707 1368.88 559.543C1368.88 575.983 1381.39 581.615 1391.52 581.615C1404.6 581.615 1414.73 573.309 1426.85 563.525L1429.75 566.312ZM1372.92 539.575C1422.75 529.279 1424.06 500.323 1424.06 498.275C1424.06 493.212 1421.55 488.661 1415.52 488.661C1402.44 488.661 1386 507.32 1377.07 528.823L1372.92 539.575ZM1529.01 566.597C1522.98 574.333 1508.93 592.48 1483.56 592.48C1467.75 592.48 1447.72 586.393 1447.72 554.195C1447.72 520.063 1481.12 483.086 1516.9 483.086C1537.26 483.086 1543.29 495.203 1543.29 502.712C1543.29 509.482 1537.95 513.805 1531.92 513.805C1525.89 513.805 1522.3 510.392 1522.3 504.874C1522.3 498.559 1525.83 497.08 1525.83 492.984C1525.83 489.287 1521.05 488.149 1516.67 488.149C1485.21 488.149 1468.43 530.985 1468.43 554.195C1468.43 572.854 1475.77 583.777 1490.56 583.777C1505.07 583.777 1516.44 573.821 1525.09 564.15L1529.01 566.597ZM1653.88 518.925C1653.88 548.677 1620.72 592.48 1583.74 592.48C1558.08 592.48 1547.16 577.69 1547.16 557.608C1547.16 522.054 1582.94 483.086 1618.33 483.086C1646.32 483.086 1653.88 502.94 1653.88 518.925ZM1567.47 564.89C1567.47 578.657 1574.75 587.417 1586.93 587.417C1614.46 587.417 1633.63 537.3 1633.63 511.416C1633.63 498.787 1628.23 488.149 1616.62 488.149C1589.49 488.149 1567.47 536.333 1567.47 564.89ZM1665.26 589.75L1684.77 519.153C1687.39 510.164 1688.7 501.916 1688.7 499.754C1688.7 496.341 1687.5 492.529 1679.99 492.529C1677.32 492.529 1674.7 493.212 1671.97 493.724V489.628C1684.32 487.978 1698.65 484.793 1709.46 483.143L1710.26 483.655L1698.42 531.839L1698.88 532.294L1700.81 527.458C1708.84 511.53 1727.15 483.2 1742.4 483.2C1747.97 483.2 1754 486.784 1754 495.089C1754 507.605 1745.24 507.604 1742.63 507.604C1732.22 507.604 1735.91 498.958 1730.05 498.958C1722.54 498.958 1707.98 525.808 1706.05 529.392C1696.89 546.857 1693.42 557.722 1683.52 589.863H1665.26V589.75ZM1847.3 565.345C1836.89 581.615 1821.13 592.935 1813.17 592.935C1803.72 592.935 1801.73 586.905 1801.73 581.842C1801.73 576.267 1802.76 570.749 1804.69 562.159L1804.23 561.761C1786.71 588.384 1773.23 592.48 1761.06 592.48C1741.03 592.48 1736.03 576.495 1736.03 563.923C1736.03 527.344 1777.1 483.086 1805.94 483.086C1819.48 483.086 1821.19 491.107 1822.15 496.341L1822.61 495.829L1833.08 457.316C1834.85 452.095 1836.05 446.697 1836.66 441.217C1836.66 435.528 1835.01 434.391 1821.64 434.106V430.067C1833.93 428.816 1846.33 427.109 1858.62 424.435L1859.81 425.63C1849.4 467.783 1820.22 570.92 1820.22 574.675C1820.22 578.372 1822.1 580.079 1824.54 580.079C1829.32 580.079 1834.16 574.39 1844.4 562.899L1847.3 565.345ZM1818.46 504.874C1818.46 499.299 1818.46 488.661 1807.08 488.661C1780 488.661 1757.02 540.94 1757.02 563.013C1757.02 567.052 1757.02 580.875 1771.81 580.875C1794.73 580.875 1818.46 534.853 1818.46 504.874ZM436.382 546.914H0V515.227H436.382V546.914ZM2499.51 549.303H2063.13V517.56H2499.51V549.303Z" fill="white"/>
</svg>
