<?xml version="1.0" encoding="utf-8"?>
<!-- Generator: Adobe Illustrator 26.3.1, SVG Export Plug-In . SVG Version: 6.00 Build 0)  -->
<svg version="1.1" id="Logo_-_2022" xmlns="http://www.w3.org/2000/svg" xmlns:xlink="http://www.w3.org/1999/xlink" x="0px"
	 y="0px" viewBox="0 0 935.73 452.99" style="enable-background:new 0 0 935.73 452.99;" xml:space="preserve">
<style type="text/css">
	.st0{fill-rule:evenodd;clip-rule:evenodd;fill:#FFFFFF;}
</style>
<path class="st0" d="M741.33,220.79c14.7,0,27.86,9.66,32.49,23.38h-64.9C713.46,230.45,726.62,220.79,741.33,220.79L741.33,220.79z
	 M806.37,256c0-17.08-6.65-33.18-18.69-45.43c-12.11-12.25-28.07-19.04-45.09-19.04c-0.28,0-0.56,0-0.84,0
	c-17.64,0.21-34.3,7.21-46.77,19.74c-12.46,12.53-19.46,29.12-19.67,46.83c-0.21,18.06,6.72,35.14,19.53,48.09
	c12.81,12.95,29.76,20.09,47.82,20.09h0.07c23.66,0,45.86-12.67,57.97-33.04l1.54-2.59l-26.6-13.09l-1.33,2.17
	c-6.65,10.99-18.2,17.5-31.01,17.5c-16.38,0-30.53-10.92-34.87-26.46h97.95V256L806.37,256L806.37,256z M639.74,168.64
	c-11.6,0-21-9.4-21-21c0-11.6,9.4-21,21-21c11.6,0,21,9.4,21,21C660.75,159.24,651.34,168.64,639.74,168.64 M623.64,323.63h32.21
	V194.26h-32.21V323.63z M562.03,129.37h32.2v194.26h-32.2V129.37z M500.42,323.63h32.21V129.37h-32.21V323.63z M415.71,294.42
	c-19.54,0-35.44-15.9-35.44-35.44c0-19.54,15.9-35.44,35.44-35.44c19.54,0,35.44,15.9,35.44,35.44
	C451.15,278.52,435.25,294.42,415.71,294.42L415.71,294.42z M415.71,191.53c-37.19,0-67.38,30.26-67.38,67.38
	c0,37.12,30.26,67.38,67.38,67.38c37.12,0,67.38-30.26,67.38-67.38C483.09,221.79,452.9,191.53,415.71,191.53L415.71,191.53
	L415.71,191.53z M278.21,191.74c-1.75-0.14-3.43-0.21-5.18-0.21c-16.24,0-31.64,6.65-42.71,18.41
	c-11.06-11.69-26.39-18.41-42.5-18.41c-32.2,0-58.46,26.18-58.46,58.38v73.71h31.51v-72.8c0-13.37,10.99-25.69,23.94-27.02
	c0.91-0.07,1.82-0.14,2.66-0.14c14.56,0,26.46,11.9,26.53,26.46v73.5h32.2v-72.94c0-13.3,10.92-25.62,23.94-26.95
	c0.91-0.07,1.82-0.14,2.66-0.14c14.56,0,26.53,11.83,26.6,26.32v73.71h32.21v-72.8c0-14.77-5.46-28.98-15.33-39.97
	C306.42,199.79,292.91,193,278.21,191.74"/>
</svg>
