<?xml version="1.0" encoding="UTF-8"?>
<svg id="_图层_1" data-name="图层_1" xmlns="http://www.w3.org/2000/svg" version="1.1" viewBox="0 0 595.28 283.5">
  <!-- Generator: Adobe Illustrator 29.7.1, SVG Export Plug-In . SVG Version: 2.1.1 Build 8)  -->
  <defs>
    <style>
      .st0 {
        fill: #66cdf2;
      }

      .st1 {
        fill: #99def7;
      }

      .st2 {
        fill: #00acea;
      }

      .st3 {
        fill: #002d4f;
      }
    </style>
  </defs>
  <path class="st3" d="M164.54,147.25h11.82c-.13,2.61,1.85,4.5,6.27,4.5,3.57,0,5.48-1.03,5.77-2.92.84-5.6-23.12.49-20.45-17.21,1.15-7.6,8.19-13.38,19.16-13.38s16.38,5.05,15.6,14.05h-12.34c.18-2.07-1.39-3.71-4.83-3.71-2.92,0-4.9,1.03-5.14,2.68-.87,5.78,23.78-.55,21.18,16.66-1.28,8.45-8.87,14.47-20.89,14.47s-17.6-6.02-16.15-15.14"/>
  <path class="st3" d="M210.98,145l3.92-25.97h12.47l-3.91,25.91c-.61,4.08,1.3,6.45,5.71,6.45s7.05-2.37,7.66-6.45l3.91-25.91h12.47l-3.92,25.97c-1.56,10.34-10.48,17.39-21.78,17.39s-18.09-7.06-16.53-17.39"/>
  <polygon class="st3" points="262.67 119.03 276.63 119.03 288.03 143.32 291.7 119.03 303.71 119.03 297.28 161.6 283.32 161.6 271.93 137.31 268.26 161.6 256.25 161.6 262.67 119.03"/>
  <path class="st3" d="M313.87,119.03h18.83c9.35,0,15.78,6.02,14.47,14.72-.82,5.41-4.48,9.85-9.28,12.47l6.9,15.39h-13.7l-4.8-12.95h-4.42l-1.96,12.95h-12.47l6.43-42.57ZM328.42,138.79c2.99,0,5.6-1.82,6.09-5.05.48-3.16-1.6-4.87-4.59-4.87h-5.06l-1.5,9.91h5.07Z"/>
  <path class="st3" d="M387.55,119.03h-16.17l-20.97,42.58h12.66l3.05-6.45h15.46l1.1,6.45h13.31l-8.44-42.58ZM370.93,144.81l6.13-13.08.48-1.02.17,1.02,2.18,13.08h-8.96Z"/>
  <polygon class="st3" points="412.36 129.06 400.15 129.06 401.66 119.03 438.61 119.03 437.09 129.06 424.82 129.06 419.91 161.6 407.44 161.6 412.36 129.06"/>
  <polygon class="st3" points="446.68 119.03 479 119.03 477.51 128.88 457.66 128.88 456.68 135.33 473.18 135.33 471.69 145.18 455.2 145.18 454.21 151.69 474.09 151.69 472.59 161.6 440.25 161.6 446.68 119.03"/>
  <polygon class="st2" points="94.71 152.73 94.71 135.62 116.38 144.17 94.71 152.73"/>
  <polygon class="st0" points="122.53 139.06 122.53 127.9 136.67 133.48 122.53 139.06"/>
  <polygon class="st1" points="136.75 152.73 136.75 144.17 147.58 148.45 136.75 152.73"/>
</svg>