<svg width="2385" height="274" viewBox="0 0 2385 274" fill="none" xmlns="http://www.w3.org/2000/svg">
<path d="M433.398 180.039H506.833C506.026 196.237 518.327 207.967 545.788 207.967C567.967 207.967 579.834 201.575 581.636 189.845C586.854 155.091 437.995 192.886 454.583 83.0378C461.728 35.8713 505.466 0 573.621 0C641.776 0 675.387 31.3409 670.541 87.1959H593.875C594.993 74.3492 585.239 64.1713 563.867 64.1713C545.725 64.1713 533.424 70.5635 531.933 80.8036C526.528 116.675 679.674 77.3903 663.521 184.198C655.568 236.639 608.413 274 533.735 274C459.057 274 424.389 236.639 433.398 180.039Z" fill="white"/>
<path d="M722.374 166.115L746.66 5H823.915L799.691 165.742C795.912 191.054 807.745 205.757 835.066 205.757C862.387 205.757 878.743 191.054 882.522 165.742L906.745 5H984L959.715 166.115C950.05 230.263 894.788 274 824.782 274C754.775 274 712.71 230.201 722.374 166.115Z" fill="white"/>
<path d="M1042.77 5H1129.25L1199.87 155.636L1222.6 5H1297L1257.17 269H1170.69L1100.13 118.364L1077.4 269H1003L1042.77 5Z" fill="white"/>
<path d="M1360.81 5H1477.37C1535.26 5 1575.06 42.3246 1566.95 96.2654C1561.88 129.808 1539.22 157.336 1509.5 173.581L1552.22 269H1467.41L1437.69 188.709H1410.33L1398.2 269H1321L1360.81 5.06201V5ZM1450.88 127.514C1469.39 127.514 1485.55 116.23 1488.58 96.2034C1491.55 76.6111 1478.67 66.0089 1460.16 66.0089H1428.84L1419.55 127.452H1450.94L1450.88 127.514Z" fill="white"/>
<path d="M1817.6 5H1717.2L1587 269H1665.6L1684.54 229.009H1780.53L1787.36 269H1870L1817.6 5ZM1714.41 164.838L1752.47 83.7412L1755.45 77.4171L1756.5 83.7412L1770.04 164.838H1714.41Z" fill="white"/>
<path d="M1971.88 67.2015H1896L1905.38 5H2135L2125.55 67.2015H2049.31L2018.79 269H1941.3L1971.88 67.2015Z" fill="white"/>
<path d="M2184.82 5H2385L2375.77 66.0853H2252.83L2246.76 106.085H2348.95L2339.73 167.17H2237.59L2231.46 207.543H2354.59L2345.3 269H2145L2184.82 5Z" fill="white"/>
<path d="M0 214V108L135 160.969L0 214Z" fill="white"/>
<path d="M173 129V60L261 94.5L173 129Z" fill="white"/>
<path d="M261 214V161L328 187.5L261 214Z" fill="white"/>
</svg>
