<svg width="2500" height="561" viewBox="0 0 2500 561" fill="none" xmlns="http://www.w3.org/2000/svg">
<path d="M2463.15 244.791C2463.15 103.837 2364.95 4.69849 2227.29 4.69849C2052.03 4.69849 1934.57 132.028 1934.57 313.859C1934.57 455.754 2033.71 553.952 2173.72 553.952C2301.05 553.952 2395.96 492.402 2434.96 394.204H2293.54C2274.74 424.744 2234.8 444.008 2185.94 444.008C2110.76 444.008 2063.78 394.204 2059.55 323.726H2455.16C2460.33 296.945 2463.15 273.922 2463.15 244.791ZM2070.36 228.347C2083.04 163.508 2146 111.824 2222.12 111.824C2287.9 111.824 2337.7 159.749 2337.7 228.347H2070.36ZM1554.46 541.266L1579.83 405.95C1657.36 421.455 1669.11 377.759 1689.31 272.513L1699.18 220.359C1727.37 73.2965 1784.22 -6.19888e-06 1946.79 19.7337L1921.41 155.05C1843.89 139.545 1830.26 198.276 1812.88 289.427L1803.01 341.58C1774.82 490.523 1716.09 561 1554.46 541.266ZM1364.64 541.736L1460.49 17.3844H1586.88L1491.5 541.736H1364.64ZM640.605 17.3844H763.236L803.173 396.553L963.862 17.3844H1085.55L1128.31 400.312L1283.36 17.3844H1405.52L1183.28 541.736H1044.21L999.1 180.892L845.46 541.736H711.083L640.605 17.3844Z" fill="white"/>
<path d="M182.502 156.46L36.8491 295.535H284.46L310.301 234.925H184.852L263.316 156.46L217.741 77.9951H430.583L234.186 541.736H307.952L530.191 17.3845H100.749L182.502 156.46Z" fill="white"/>
</svg>
