<?xml version="1.0" encoding="UTF-8"?>
<svg xmlns="http://www.w3.org/2000/svg" width="130" height="130" viewBox="0 0 130 130" fill="none">
  <g clip-path="url(#clip0_42_37)">
    <path d="M119 0H11C4.92487 0 0 4.92487 0 11V119C0 125.075 4.92487 130 11 130H119C125.075 130 130 125.075 130 119V11C130 4.92487 125.075 0 119 0Z" fill="#FF0051"></path>
    <path d="M50.4502 97.99H39.5502C38.5202 97.99 37.6102 97.32 37.3202 96.32L19.4702 34.96C19.0402 33.48 20.1502 31.99 21.7002 31.99H30.9302C31.9702 31.99 32.8902 32.69 33.1602 33.69L44.8402 75.83C44.9702 76.31 45.6502 76.31 45.7902 75.83L58.1102 33.65C58.4002 32.66 59.3102 31.98 60.3402 31.98H69.6902C70.7202 31.98 71.6302 32.66 71.9202 33.65L84.2402 75.83C84.3802 76.31 85.0502 76.3 85.1902 75.83L96.8702 33.69C97.1502 32.69 98.0602 31.99 99.1002 31.99H108.33C109.88 31.99 110.99 33.47 110.56 34.96L92.7102 96.32C92.4202 97.31 91.5102 97.99 90.4802 97.99H79.5802C78.5502 97.99 77.6402 97.3 77.3502 96.31L65.5002 55.11C65.3602 54.64 64.6902 54.64 64.5502 55.11L52.7002 96.31C52.4102 97.3 51.5102 97.99 50.4702 97.99H50.4502Z" fill="white"></path>
  </g>
  <defs>
    <clipPath id="clip0_42_37">
      <rect width="130" height="130" fill="white"></rect>
    </clipPath>
  </defs>
</svg>
