<svg width="2223" height="212" viewBox="0 0 2223 212" fill="none" xmlns="http://www.w3.org/2000/svg">
<path d="M373.673 1.76578C430.795 -8.96131 485.537 30.3713 496.248 87.5824C506.958 144.794 467.687 199.621 410.565 210.348C364.153 218.691 317.741 194.853 296.321 151.945C271.33 99.5014 293.941 36.3309 346.302 11.301C355.823 6.5334 364.153 4.14957 373.673 1.76578ZM382.004 39.9065C362.963 43.4822 346.302 54.2093 336.782 70.8959C326.072 88.7744 323.692 111.42 330.832 131.683C336.782 147.177 348.683 160.288 364.153 167.44C379.624 174.591 398.664 175.783 414.135 169.823C429.605 163.864 441.506 153.137 449.836 140.026C459.357 123.339 460.547 103.077 454.596 85.1986C449.836 69.704 439.126 56.5931 426.035 48.2498C412.945 39.9065 397.474 37.5227 382.004 39.9065ZM1892.17 2.95766C1911.21 -0.618038 1931.44 -0.617984 1950.48 5.34151C1967.14 10.1091 1981.42 22.028 1989.75 38.7146C1994.51 48.2498 1995.7 57.785 1995.7 68.512H1955.24C1955.24 58.9769 1950.48 49.4417 1942.15 43.4822C1931.44 36.3308 1918.35 33.947 1906.45 36.3308C1896.93 36.3308 1887.41 41.0984 1881.46 49.4417C1875.51 58.9769 1876.7 70.8959 1886.22 78.0473C1895.74 82.8149 1905.26 85.1986 1915.97 86.3905C1930.25 88.7743 1944.53 92.35 1957.62 97.1176C1969.52 101.885 1979.04 110.229 1986.18 120.956C1996.89 142.41 1993.32 168.632 1977.85 186.51C1963.57 200.813 1944.53 209.156 1924.3 210.348C1904.07 212.732 1882.65 209.156 1863.61 202.005C1849.33 194.853 1837.43 182.934 1831.48 168.632C1827.91 159.096 1825.53 149.561 1825.53 140.026H1865.99C1868.37 161.48 1886.22 176.975 1907.64 175.783C1919.54 178.167 1932.63 175.783 1942.15 168.632C1951.67 161.48 1954.05 147.177 1946.91 137.642C1939.77 131.683 1931.44 128.107 1921.92 128.107C1908.83 125.723 1896.93 123.339 1883.84 119.764C1873.13 117.38 1862.42 112.612 1854.09 105.461C1846.95 99.5014 1842.19 92.35 1839.81 84.0068C1835.05 68.5121 1836.24 53.0174 1843.38 38.7146C1854.09 18.4523 1871.94 6.53335 1892.17 2.95766ZM0 2.95766H40.4614L59.5021 162.672C60.6922 160.288 60.6922 157.904 61.8822 155.521L108.294 1.76578H142.805L190.407 156.713C191.597 159.096 191.597 161.48 192.787 162.672C199.927 109.037 205.877 55.4012 213.018 1.76578H253.479C242.769 69.704 233.248 137.642 222.538 206.772C204.687 206.772 186.837 206.772 170.176 206.772L129.715 74.4715C128.525 70.8958 127.335 67.3201 126.145 63.7444C113.054 111.42 98.7735 159.096 84.493 206.772H30.9411C21.4208 140.026 10.7104 70.8958 0 2.95766ZM546.23 2.95766H645.003C664.044 2.95766 683.085 11.301 696.175 25.6037C704.505 36.3308 709.265 49.4417 708.075 63.7444C705.695 84.0067 693.795 101.885 674.754 109.037C680.704 109.037 685.465 111.42 690.225 114.996C694.985 119.764 697.365 125.723 699.745 131.683C708.075 156.713 716.406 181.742 724.736 207.964H680.704C674.754 187.702 667.614 167.44 661.664 148.369C660.474 143.602 658.094 138.834 654.523 135.258C650.953 132.875 647.383 130.491 642.623 131.683H586.691C586.691 157.904 586.691 182.934 586.691 209.156H546.23V2.95766ZM586.691 39.9065C586.691 58.9768 586.691 78.0473 586.691 97.1176H625.963C635.483 98.3095 645.003 95.9257 653.333 92.35C660.474 88.7743 665.234 81.6229 666.424 74.4715C668.804 64.9364 666.424 56.5931 660.474 48.2498C653.333 42.2903 643.813 38.7146 634.293 38.7146C618.822 39.9065 602.162 39.9065 586.691 39.9065ZM777.098 4.14954H817.559V173.399H909.193V209.156H775.908L777.098 4.14954ZM959.175 4.14954H1042.48C1098.41 5.34143 1143.63 53.0174 1141.25 109.037C1140.06 141.218 1124.59 171.015 1098.41 190.086C1081.75 202.005 1062.71 209.156 1041.29 209.156H957.984C959.174 140.026 959.175 72.0877 959.175 4.14954ZM999.636 39.9065C999.636 85.1986 999.636 129.299 999.636 174.591C1013.92 174.591 1027.01 174.591 1041.29 174.591C1056.76 174.591 1071.04 168.631 1082.94 159.096C1094.84 147.177 1101.98 131.683 1103.17 114.996C1105.55 95.9257 1100.79 75.6635 1088.89 60.1688C1076.99 47.0579 1060.33 38.7146 1042.48 38.7146L999.636 39.9065ZM1194.8 2.95766H1347.13C1347.13 14.8766 1347.13 26.7956 1347.13 38.7146H1235.26C1235.26 56.5931 1235.26 73.2797 1235.26 91.1581H1332.85C1332.85 103.077 1332.85 114.996 1332.85 125.723H1235.26C1235.26 153.137 1235.26 180.551 1235.26 207.964H1193.61L1194.8 2.95766ZM1401.87 4.14954H1553.01C1553.01 16.0685 1553.01 27.9875 1553.01 39.9065H1498.26C1498.26 85.1986 1498.26 129.299 1498.26 174.591C1516.11 174.591 1535.16 174.591 1553.01 174.591C1553.01 186.51 1553.01 198.429 1553.01 210.348C1503.02 210.348 1453.04 210.348 1401.87 210.348V174.591C1419.72 174.591 1438.76 174.591 1456.61 174.591C1456.61 129.299 1456.61 85.1986 1456.61 39.9065H1401.87V4.14954ZM1612.51 4.14954H1712.47C1732.7 4.14954 1752.93 13.6848 1764.83 30.3713C1776.73 48.2498 1776.73 72.0878 1764.83 91.1581C1758.88 99.5014 1750.55 106.653 1741.03 110.228C1748.17 110.228 1755.31 114.996 1760.07 120.956C1764.83 130.491 1768.4 141.218 1770.78 151.945C1776.73 171.015 1782.68 190.086 1789.82 210.348H1745.79C1739.84 190.086 1732.7 169.823 1726.75 149.561C1725.56 143.602 1721.99 138.834 1717.23 135.258C1712.47 132.875 1707.71 132.875 1702.95 132.875H1652.97C1652.97 159.096 1652.97 184.126 1652.97 210.348H1612.51V4.14954ZM1651.78 39.9065C1651.78 58.9768 1651.78 78.0473 1651.78 97.1176C1663.68 97.1176 1675.58 97.1176 1687.48 97.1176C1698.19 98.3095 1708.9 97.1176 1718.42 93.5419C1725.56 89.9662 1730.32 84.0068 1731.51 76.8554C1733.89 67.3202 1732.7 57.785 1725.56 49.4417C1718.42 43.4822 1708.9 39.9065 1699.38 39.9065C1683.91 39.9065 1668.44 39.9065 1651.78 39.9065ZM2037.35 4.14954H2223V39.9065H2150.41C2150.41 95.9257 2150.41 153.137 2150.41 209.156C2137.32 209.156 2123.04 209.156 2109.95 209.156C2109.95 153.137 2109.95 95.9257 2109.95 39.9065C2086.15 39.9065 2062.34 39.9065 2037.35 39.9065C2037.35 27.9875 2037.35 16.0685 2037.35 4.14954Z" fill="#FA1C45"/>
</svg>
